<?xml version="1.0" standalone="no"?>
<!DOCTYPE svg PUBLIC "-//W3C//DTD SVG 20010904//EN"
 "http://www.w3.org/TR/2001/REC-SVG-20010904/DTD/svg10.dtd">
<svg version="1.0" xmlns="http://www.w3.org/2000/svg"
 width="256.000000pt" height="256.000000pt" viewBox="0 0 256.000000 256.000000"
 preserveAspectRatio="xMidYMid meet">
<metadata>
Created by potrace 1.14, written by Peter Selinger 2001-2017
</metadata>
<g transform="translate(0.000000,256.000000) scale(0.100000,-0.100000)"
fill="#000000" stroke="none">
<path d="M811 2113 c-19 -10 -44 -31 -55 -46 -21 -28 -21 -38 -24 -775 -2
-714 -1 -749 16 -782 11 -19 35 -44 53 -55 32 -19 52 -20 399 -20 339 0 367 1
396 19 49 29 59 53 64 155 l5 93 46 18 46 17 79 -100 c106 -134 128 -141 210
-65 37 34 44 47 44 78 0 31 -12 52 -80 136 -44 54 -80 103 -80 109 0 5 7 19
16 30 29 39 54 144 54 231 0 210 -122 380 -322 447 -16 6 -18 25 -18 217 0
230 -4 250 -57 286 -26 18 -54 19 -393 22 -333 2 -368 1 -399 -15z m329 -183
c11 -7 11 -10 2 -10 -7 0 -11 -4 -7 -10 3 -5 12 -7 20 -3 25 9 20 -73 -4 -87
-29 -15 -67 -12 -85 6 -22 22 -21 90 2 103 22 13 53 13 72 1z m188 1 c9 -5 12
-25 10 -62 l-3 -54 -43 -3 c-24 -2 -50 2 -58 9 -21 17 -19 95 4 108 21 13 72
14 90 2z m170 0 c9 -5 12 -25 10 -62 l-3 -54 -45 -3 c-33 -3 -47 1 -57 14 -18
24 -16 79 3 98 16 17 70 21 92 7z m-500 -51 c3 -33 -1 -47 -14 -57 -24 -18
-69 -16 -88 3 -16 16 -22 85 -9 98 4 4 30 6 58 4 l50 -3 3 -45z m-21 -96 c-3
-3 -12 -4 -19 -1 -8 3 -5 6 6 6 11 1 17 -2 13 -5z m440 0 c-3 -3 -12 -4 -19
-1 -8 3 -5 6 6 6 11 1 17 -2 13 -5z m70 0 c-3 -3 -12 -4 -19 -1 -8 3 -5 6 6 6
11 1 17 -2 13 -5z m-489 -82 c2 -24 -2 -50 -9 -58 -14 -17 -80 -19 -97 -2 -13
13 -17 90 -5 102 4 4 30 6 58 4 l50 -3 3 -43z m160 -6 c4 -36 -14 -56 -49 -56
-34 0 -54 30 -45 66 14 54 88 45 94 -10z m285 -9 c3 -7 -3 -13 -14 -14 -15 -1
-16 1 -6 12 15 18 14 18 20 2z m-523 -87 c0 -5 -7 -7 -15 -4 -8 4 -15 8 -15
10 0 2 7 4 15 4 8 0 15 -4 15 -10z m74 -47 c3 -10 2 -31 -2 -48 -8 -27 -13
-30 -48 -30 -45 0 -54 8 -54 51 0 40 5 44 56 44 32 0 44 -4 48 -17z m164 5
c14 -14 16 -76 3 -96 -5 -9 -24 -12 -52 -10 l-44 3 -3 49 c-2 32 1 52 10 57
19 13 72 11 86 -3z m122 -22 c0 -12 -13 -36 -19 -36 -4 0 -7 9 -8 20 -1 11 4
20 13 20 8 0 14 -2 14 -4z m395 -100 c62 -29 117 -86 147 -151 32 -71 32 -189
-1 -262 -28 -64 -101 -134 -163 -157 -72 -28 -171 -19 -234 20 -167 103 -198
335 -65 486 75 86 211 114 316 64z m-679 -70 c3 -13 4 -38 2 -57 -3 -33 -4
-34 -52 -37 -56 -4 -66 5 -66 59 0 46 15 59 67 59 36 0 43 -3 49 -24z m170 12
c3 -3 -1 -18 -8 -33 -10 -23 -17 -26 -49 -23 -21 2 -35 0 -33 -4 3 -5 19 -8
36 -8 23 0 29 -4 24 -16 -3 -9 -6 -20 -6 -25 0 -13 -54 -11 -68 3 -15 15 -16
90 -1 105 11 11 94 11 105 1z m-46 -144 c0 -2 -11 -4 -25 -4 -14 0 -25 4 -25
9 0 4 11 6 25 3 14 -2 25 -6 25 -8z m0 -33 c0 -5 -9 -12 -19 -16 -38 -12 -37
-68 0 -80 10 -4 19 -11 19 -16 0 -13 -44 -11 -58 3 -16 16 -16 90 0 106 14 14
58 16 58 3z m-134 -38 c11 -43 -14 -78 -56 -78 -34 0 -35 1 -34 37 2 57 9 68
48 68 30 0 37 -4 42 -27z m9 -203 l0 -55 -55 0 -55 0 -3 44 c-5 67 0 72 60 69
l53 -3 0 -55z m145 50 c0 -5 -13 -10 -29 -10 -38 0 -48 -16 -16 -24 15 -4 27
-16 31 -31 8 -33 24 -32 25 3 0 26 1 26 11 5 19 -40 4 -54 -54 -51 l-53 3 -3
44 c-2 24 -1 50 2 57 6 16 86 20 86 4z m-73 -136 c-3 -3 -12 -4 -19 -1 -8 3
-5 6 6 6 11 1 17 -2 13 -5z m-57 -109 c0 -9 -6 -12 -15 -9 -8 4 -15 10 -15 15
0 5 7 9 15 9 8 0 15 -7 15 -15z m-30 -12 c20 -17 26 -56 14 -87 -7 -19 -84
-22 -102 -4 -13 13 -17 90 -5 101 13 13 73 7 93 -10z m350 -35 c0 -5 -11 -1
-25 8 -14 9 -22 20 -19 26 6 10 44 -19 44 -34z m-164 -2 c12 -50 3 -61 -51
-61 -47 0 -50 1 -53 28 -6 47 3 57 52 57 40 0 46 -3 52 -24z m274 -17 c-11 -8
-7 -9 18 -5 33 6 40 -2 20 -22 -16 -16 -33 -15 -52 4 -22 22 -20 34 7 34 18 0
19 -2 7 -11z"/>
<path d="M1077 1914 c-3 -4 -1 -16 5 -28 10 -19 10 -20 -5 -7 -15 12 -17 11
-17 -3 0 -48 56 -76 88 -44 13 13 17 69 5 66 -5 0 -16 2 -27 7 -12 5 -21 3
-27 -6 -8 -13 -13 -6 -10 14 1 9 -4 9 -12 1z m63 -29 c7 -9 8 -15 2 -15 -5 0
-12 7 -16 15 -3 8 -4 15 -2 15 2 0 9 -7 16 -15z m-20 -40 c0 -2 -7 -5 -15 -9
-9 -3 -15 0 -15 9 0 9 6 12 15 9 8 -4 15 -7 15 -9z"/>
<path d="M1421 1854 c0 -11 3 -14 6 -6 3 7 2 16 -1 19 -3 4 -6 -2 -5 -13z"/>
<path d="M918 1723 c-12 -3 -18 -14 -18 -34 0 -28 2 -29 45 -29 36 0 45 3 45
18 0 34 -33 55 -72 45z"/>
<path d="M925 1341 c-7 -12 12 -24 25 -16 11 7 4 25 -10 25 -5 0 -11 -4 -15
-9z"/>
<path d="M938 1303 c7 -3 16 -2 19 1 4 3 -2 6 -13 5 -11 0 -14 -3 -6 -6z"/>
<path d="M911 1148 c1 -30 2 -31 8 -8 4 16 15 25 28 26 18 1 20 -2 12 -28 -6
-21 -5 -28 4 -25 7 2 12 17 12 33 0 25 -4 29 -32 32 -31 3 -33 2 -32 -30z"/>
<path d="M930 1145 c0 -8 5 -15 10 -15 6 0 10 7 10 15 0 8 -4 15 -10 15 -5 0
-10 -7 -10 -15z"/>
<path d="M919 981 c-13 -5 -14 -12 -8 -29 10 -28 42 -26 47 2 2 11 0 16 -6 12
-6 -3 -12 0 -14 8 -2 8 -10 11 -19 7z"/>
</g>
</svg>
